# xmcd
# Copyright (C) 1995-1998 Ti Kan
#
# Track frame offsets:
#       150
#       16950
#       33825
#       47400
#       65325
#       79200
#       99600
#       126075
#       164850
#       195675
#       211125
#       227925
#       246375
#
# Disc length: 3518 seconds
#
# Revision: 12
# Processed by: cddbd v1.5.2PL0 Copyright (c) Steve Scherf et al.
# Submitted via: CD-Transfer v1.0
#
DISCID=b10dbc0d
DTITLE=Yo! Majesty - 
DYEAR=08
DGENRE=
TTITLE0=Flickery Vision (Lyrics!)
TTITLE1=Destroy Everything You Touch (Radio Edit) (Re-Issue)
TTITLE2=Pieces (Radio Edit)
TTITLE3=Paris
TTITLE4=Shadows (Radio Edit)
TTITLE5=Fable (Psycho Version-Nrg Mix)
TTITLE6=Resurrection Machine (Album Version)
TTITLE7=Take A Bow (Seamus Haji and Paul Emanuel Club)
TTITLE8=Strangers (Club 56-Jack Rokka Mix)
TTITLE9=Just Dance (Hccr's Bambossa Radio Edit)
TTITLE10=Day 'n' Nite
TTITLE11=Club Action
TTITLE12=Kids (Radio Edit)
EXTD=
EXTT0=
EXTT1=
EXTT2=
EXTT3=
EXTT4=
EXTT5=
EXTT6=
EXTT7=
EXTT8=
EXTT9=
EXTT10=
EXTT11=
EXTT12=
PLAYORDER=
